<svg width="1280" height="67" viewBox="0 0 1280 67" fill="none" xmlns="http://www.w3.org/2000/svg">
<path d="M1463 9.91133V62.1234H-1V2.13151C50.4391 2.02831 103.493 2.65149 153.205 3.8264C276.917 6.75177 389.772 12.7772 501.048 18.7113C577.007 22.7599 653.902 26.8245 734.484 29.8848C771.967 31.3098 810.268 32.5204 849.652 33.4056C973.685 36.2 1112.08 35.4696 1218.06 28.7139C1266.81 25.6059 1307.89 21.1802 1325.86 15.8573C1343.79 10.5385 1336.01 4.30271 1298.68 0C1359.24 2.47287 1414.78 5.82295 1463 9.91133Z" fill="white"/>
<path d="M929.327 44.2616C756.693 42.2175 598.543 37.0018 458.182 32.1553C271.211 25.7012 113.87 19.9061 -2 23.145V2.13156C49.4391 2.02836 103.493 2.65155 153.205 3.82646C276.917 6.75183 389.772 12.7772 501.048 18.7113C612.353 24.6414 725.589 30.6112 849.652 33.4056C901.237 34.5686 955.28 35.1204 1008.48 34.8862C1083.18 34.5528 1156.15 32.6594 1218.06 28.7139C1266.81 25.606 1307.89 21.1802 1325.86 15.8574C1343.79 10.5425 1336.01 4.31071 1298.73 0.00402832C1298.73 0.00402832 1298.79 0.00799325 1298.85 0.0119625C1304.09 0.301721 1375.69 3.56051 1380.93 12.5073C1386.34 21.7637 1295.84 48.5961 929.327 44.2616Z" fill="url(#paint0_linear_1441_6701)"/>
<path d="M1463 9.91132L1464.55 67.5H-1.5L-1 48.997C56.9641 46.2423 136.937 44.73 238.967 44.73C613.612 44.73 943.898 67.3827 1241.59 54.5817C1470.7 44.73 1465.52 22.744 1430.93 13.8052C1396.87 5.00528 1301.66 0.150833 1298.68 0C1359.24 2.47287 1414.78 5.82295 1463 9.91132Z" fill="#138808"/>
<defs>
<linearGradient id="paint0_linear_1441_6701" x1="0.000119617" y1="22.3678" x2="1381.15" y2="22.3678" gradientUnits="userSpaceOnUse">
<stop stop-color="#FF9933"/>
<stop offset="1" stop-color="#FF9933"/>
</linearGradient>
</defs>
</svg>
