<svg width="146" height="27" viewBox="0 0 146 27" fill="none" xmlns="http://www.w3.org/2000/svg">
<g clip-path="url(#clip0_767_1768)">
<path d="M7.54893 10.3238C7.5544 10.2392 7.52597 10.1557 7.46997 10.092L4.93522 7.20831C4.87922 7.14459 4.80017 7.10574 4.71543 7.10027C4.63035 7.09484 4.54734 7.12323 4.48363 7.17923C3.31891 8.20304 2.35214 9.41044 1.61002 10.7679C1.56935 10.8424 1.55983 10.93 1.5837 11.0113C1.60757 11.0928 1.66279 11.1614 1.73728 11.202L5.10624 13.0436C5.15496 13.0702 5.20756 13.0829 5.25947 13.0829C5.37264 13.0829 5.48236 13.0226 5.54047 12.9163C6.03097 12.0191 6.67038 11.2208 7.44085 10.5435C7.50469 10.4876 7.54354 10.4086 7.54893 10.3238Z" fill="url(#paint0_linear_767_1768)"/>
<path d="M8.67966 9.25425C8.73713 9.36259 8.84797 9.42432 8.96261 9.42432C9.01318 9.42432 9.06449 9.4123 9.11222 9.38697C10.0152 8.90807 10.9867 8.59558 11.9996 8.45815C12.1746 8.43442 12.2974 8.27322 12.2736 8.0981L11.7576 4.29357C11.7339 4.1185 11.5722 3.99594 11.3975 4.0195C9.85929 4.22813 8.38423 4.7026 7.01334 5.42973C6.85727 5.51252 6.79786 5.70612 6.88057 5.86228L8.67966 9.25425Z" fill="url(#paint1_linear_767_1768)"/>
<path d="M4.55708 14.4032L0.851579 13.3978C0.769686 13.3757 0.682323 13.3869 0.608701 13.4291C0.53508 13.4713 0.481275 13.541 0.459003 13.6229C0.15448 14.7457 0 15.9094 0 17.0818C0 17.2824 0.00478173 17.4836 0.0147329 17.6971C0.0227024 17.8686 0.16413 18.0022 0.334118 18.0022C0.339115 18.0022 0.344198 18.0021 0.349196 18.0019L4.18453 17.8247C4.26927 17.8208 4.34909 17.7833 4.40617 17.7207C4.46334 17.658 4.49328 17.5751 4.48931 17.4903C4.48264 17.3464 4.4794 17.2127 4.4794 17.0818C4.4794 16.3055 4.58129 15.5364 4.7822 14.7957C4.82834 14.6252 4.72758 14.4495 4.55708 14.4032Z" fill="url(#paint2_linear_767_1768)"/>
<path d="M18.8981 5.20259C17.5019 4.52948 16.0101 4.11235 14.4642 3.96253C14.3793 3.954 14.2954 3.9801 14.2299 4.03399C14.1644 4.08793 14.123 4.16564 14.1149 4.25016L13.7447 8.07176C13.7276 8.2476 13.8564 8.40402 14.0323 8.42104C15.0512 8.51973 16.0339 8.79449 16.953 9.23755C16.9968 9.25866 17.0443 9.26934 17.092 9.26934C17.1276 9.26934 17.1632 9.26335 17.1975 9.25142C17.2776 9.22346 17.3433 9.16475 17.3802 9.08833L19.0473 5.62967C19.1241 5.47054 19.0573 5.27927 18.8981 5.20259Z" fill="url(#paint3_linear_767_1768)"/>
<path d="M24.5378 10.5681C24.5585 10.4858 24.5457 10.3988 24.5021 10.3259C23.7081 8.99754 22.6957 7.82804 21.4932 6.85003C21.4273 6.79653 21.3433 6.77145 21.2585 6.77994C21.1741 6.78869 21.0966 6.83052 21.0431 6.89634L18.6205 9.87497C18.567 9.94084 18.5418 10.0252 18.5505 10.1096C18.5592 10.194 18.6011 10.2715 18.6669 10.3251C19.4626 10.9721 20.1322 11.7456 20.6574 12.6242C20.7173 12.7244 20.8234 12.78 20.9323 12.78C20.9882 12.78 21.0448 12.7654 21.0962 12.7346L24.3917 10.7647C24.4645 10.7212 24.5171 10.6505 24.5378 10.5681Z" fill="url(#paint4_linear_767_1768)"/>
<path d="M25.7618 13.1375C25.7089 12.9689 25.5293 12.8749 25.3608 12.9279L21.697 14.0758C21.5284 14.1286 21.4346 14.3081 21.4874 14.4767C21.7503 15.3161 21.8837 16.1929 21.8837 17.0827C21.8837 17.2137 21.8804 17.3474 21.8737 17.4913C21.8698 17.576 21.8997 17.6589 21.9569 17.7216C22.0141 17.7843 22.0938 17.8218 22.1785 17.8256L26.0139 18.0028C26.0189 18.003 26.0239 18.0032 26.0289 18.0032C26.1988 18.0032 26.3403 17.8695 26.3483 17.698C26.3582 17.4846 26.3631 17.2833 26.3631 17.0827C26.363 15.738 26.1608 14.4107 25.7618 13.1375Z" fill="url(#paint5_linear_767_1768)"/>
<path d="M13.1705 16.4025C13.1154 16.4025 13.0605 16.4043 13.0058 16.4073L7.80837 13.3407C7.68116 13.2655 7.51966 13.2844 7.41308 13.3866C7.30642 13.4887 7.28083 13.6493 7.35036 13.7795L10.1856 19.0935C10.1752 19.1958 10.1696 19.2992 10.1696 19.4034C10.1696 20.205 10.4817 20.9586 11.0485 21.5254C11.6154 22.0922 12.369 22.4044 13.1706 22.4044C13.9722 22.4044 14.7258 22.0921 15.2926 21.5254C15.8594 20.9586 16.1715 20.205 16.1715 19.4034C16.1715 18.6018 15.8593 17.8482 15.2926 17.2815C14.7258 16.7147 13.9721 16.4025 13.1705 16.4025Z" fill="url(#paint6_linear_767_1768)"/>
</g>
<path d="M143.215 19.1472C143.071 19.1472 142.935 19.0826 142.844 18.9713L139.515 14.8945C139.23 14.5459 138.665 14.7472 138.665 15.1973V18.6685C138.665 18.9329 138.451 19.1472 138.187 19.1472H136.761C136.497 19.1472 136.283 18.9329 136.283 18.6685V7.74719C136.283 7.48285 136.497 7.26855 136.761 7.26855H138.187C138.451 7.26855 138.665 7.48285 138.665 7.74719V11.2458C138.665 11.6966 139.231 11.8974 139.516 11.5474L142.844 7.44559C142.935 7.33359 143.072 7.26855 143.216 7.26855H144.843C145.248 7.26855 145.47 7.7416 145.211 8.05339L141.219 12.849C141.071 13.0272 141.071 13.2859 141.22 13.4633L145.339 18.3605C145.6 18.6719 145.379 19.1472 144.972 19.1472H143.215Z" fill="url(#paint7_linear_767_1768)"/>
<path d="M122.643 13.1907C122.643 12.0221 122.904 10.9783 123.426 10.0594C123.959 9.12904 124.68 8.40861 125.587 7.89807C126.506 7.37618 127.533 7.11523 128.667 7.11523C129.995 7.11523 131.158 7.4556 132.156 8.13632C132.977 8.69602 133.595 9.43212 134.009 10.3446C134.144 10.6416 133.913 10.9613 133.587 10.9613H131.811C131.627 10.9613 131.462 10.854 131.368 10.6957C131.109 10.2594 130.77 9.92246 130.352 9.68496C129.864 9.40133 129.297 9.25951 128.65 9.25951C127.958 9.25951 127.34 9.42402 126.795 9.75304C126.262 10.0707 125.842 10.5245 125.536 11.1145C125.241 11.7044 125.094 12.3965 125.094 13.1907C125.094 13.9735 125.241 14.6656 125.536 15.2669C125.842 15.8569 126.262 16.3163 126.795 16.6454C127.34 16.963 127.958 17.1219 128.65 17.1219C129.297 17.1219 129.864 16.9801 130.352 16.6964C130.77 16.4494 131.109 16.1068 131.368 15.6687C131.461 15.5103 131.627 15.403 131.811 15.403H133.589C133.915 15.403 134.145 15.7218 134.012 16.0188C133.598 16.942 132.979 17.6841 132.156 18.2451C131.169 18.9144 130.006 19.2491 128.667 19.2491C127.533 19.2491 126.506 18.9939 125.587 18.4833C124.68 17.9614 123.959 17.241 123.426 16.322C122.904 15.403 122.643 14.3593 122.643 13.1907Z" fill="url(#paint8_linear_767_1768)"/>
<path d="M117.024 9.19202C116.76 9.19202 116.546 9.40631 116.546 9.67065V11.6915C116.546 11.9559 116.76 12.1702 117.024 12.1702H120.066C120.331 12.1702 120.545 12.3845 120.545 12.6488V13.5806C120.545 13.8449 120.331 14.0592 120.066 14.0592H117.024C116.76 14.0592 116.546 14.2735 116.546 14.5378V16.7289C116.546 16.9932 116.76 17.2075 117.024 17.2075H120.577C120.841 17.2075 121.055 17.4218 121.055 17.6862V18.669C121.055 18.9333 120.841 19.1476 120.577 19.1476H114.642C114.377 19.1476 114.163 18.9333 114.163 18.669V7.73059C114.163 7.46625 114.377 7.25195 114.642 7.25195H120.577C120.841 7.25195 121.055 7.46624 121.055 7.73059V8.71338C121.055 8.97772 120.841 9.19202 120.577 9.19202H117.024Z" fill="url(#paint9_linear_767_1768)"/>
<path d="M111.342 7.26855C111.606 7.26855 111.82 7.48285 111.82 7.74719V18.6685C111.82 18.9329 111.606 19.1472 111.342 19.1472H109.916C109.652 19.1472 109.438 18.9329 109.438 18.6685V14.5714C109.438 14.3071 109.223 14.0928 108.959 14.0928H104.828C104.564 14.0928 104.349 14.3071 104.349 14.5714V18.6685C104.349 18.9329 104.135 19.1472 103.871 19.1472H102.445C102.181 19.1472 101.967 18.9329 101.967 18.6685V7.74719C101.967 7.48285 102.181 7.26855 102.445 7.26855H103.871C104.135 7.26855 104.349 7.48285 104.349 7.74719V11.6741C104.349 11.9385 104.564 12.1527 104.828 12.1527H108.959C109.223 12.1527 109.438 11.9385 109.438 11.6741V7.74719C109.438 7.48285 109.652 7.26855 109.916 7.26855H111.342Z" fill="url(#paint10_linear_767_1768)"/>
<path d="M88.3247 13.1907C88.3247 12.0221 88.5857 10.9783 89.1075 10.0594C89.6408 9.12904 90.3612 8.40861 91.2688 7.89807C92.1878 7.37618 93.2146 7.11523 94.3491 7.11523C95.6765 7.11523 96.8394 7.4556 97.8378 8.13632C98.6587 8.69602 99.2764 9.43212 99.6907 10.3446C99.8256 10.6416 99.5951 10.9613 99.269 10.9613H97.4923C97.3082 10.9613 97.1432 10.854 97.0492 10.6957C96.7903 10.2594 96.4519 9.92246 96.0339 9.68496C95.546 9.40133 94.9788 9.25951 94.3321 9.25951C93.64 9.25951 93.0217 9.42402 92.4771 9.75304C91.9439 10.0707 91.5241 10.5245 91.2178 11.1145C90.9228 11.7044 90.7753 12.3965 90.7753 13.1907C90.7753 13.9735 90.9228 14.6656 91.2178 15.2669C91.5241 15.8569 91.9439 16.3163 92.4771 16.6454C93.0217 16.963 93.64 17.1219 94.3321 17.1219C94.9788 17.1219 95.546 16.9801 96.0339 16.6964C96.452 16.4494 96.7905 16.1068 97.0494 15.6687C97.1431 15.5103 97.3082 15.403 97.4923 15.403H99.2709C99.5965 15.403 99.827 15.7218 99.6936 16.0188C99.2792 16.942 98.6606 17.6841 97.8378 18.2451C96.8508 18.9144 95.6879 19.2491 94.3491 19.2491C93.2146 19.2491 92.1878 18.9939 91.2688 18.4833C90.3612 17.9614 89.6408 17.241 89.1075 16.322C88.5857 15.403 88.3247 14.3593 88.3247 13.1907Z" fill="url(#paint11_linear_767_1768)"/>
<path d="M76.8018 7.26855C78.0498 7.26855 79.1446 7.51248 80.0863 8.00033C81.0393 8.48818 81.7711 9.18593 82.2817 10.0936C82.8035 10.9898 83.0645 12.0336 83.0645 13.2249C83.0645 14.4162 82.8035 15.4599 82.2817 16.3562C81.7711 17.2412 81.0393 17.9276 80.0863 18.4154C79.1446 18.9033 78.0498 19.1472 76.8018 19.1472H73.128C72.8637 19.1472 72.6494 18.9329 72.6494 18.6685V7.74719C72.6494 7.48285 72.8637 7.26855 73.128 7.26855H76.8018ZM76.7167 17.122C77.9647 17.122 78.9291 16.7817 79.6098 16.1009C80.2905 15.4202 80.6309 14.4615 80.6309 13.2249C80.6309 11.9882 80.2905 11.0239 79.6098 10.3318C78.9291 9.6284 77.9647 9.27669 76.7167 9.27669H75.5106C75.2462 9.27669 75.0319 9.49098 75.0319 9.75532V16.6434C75.0319 16.9077 75.2462 17.122 75.5106 17.122H76.7167Z" fill="url(#paint12_linear_767_1768)"/>
<path d="M66.4525 9.19202C66.1881 9.19202 65.9738 9.40631 65.9738 9.67065V11.6915C65.9738 11.9559 66.1881 12.1702 66.4525 12.1702H69.4945C69.7588 12.1702 69.9731 12.3845 69.9731 12.6488V13.5806C69.9731 13.8449 69.7588 14.0592 69.4945 14.0592H66.4525C66.1881 14.0592 65.9738 14.2735 65.9738 14.5378V16.7289C65.9738 16.9932 66.1881 17.2075 66.4525 17.2075H70.005C70.2693 17.2075 70.4836 17.4218 70.4836 17.6862V18.669C70.4836 18.9333 70.2693 19.1476 70.005 19.1476H64.0699C63.8056 19.1476 63.5913 18.9333 63.5913 18.669V7.73059C63.5913 7.46625 63.8056 7.25195 64.0699 7.25195H70.005C70.2693 7.25195 70.4836 7.46624 70.4836 7.73059V8.71338C70.4836 8.97772 70.2693 9.19202 70.005 9.19202H66.4525Z" fill="url(#paint13_linear_767_1768)"/>
<path d="M57.3963 9.19202C57.132 9.19202 56.9177 9.40631 56.9177 9.67065V11.6915C56.9177 11.9559 57.132 12.1702 57.3963 12.1702H60.4383C60.7026 12.1702 60.9169 12.3845 60.9169 12.6488V13.5806C60.9169 13.8449 60.7026 14.0592 60.4383 14.0592H57.3963C57.132 14.0592 56.9177 14.2735 56.9177 14.5378V16.7289C56.9177 16.9932 57.132 17.2075 57.3963 17.2075H60.9488C61.2132 17.2075 61.4275 17.4218 61.4275 17.6862V18.669C61.4275 18.9333 61.2132 19.1476 60.9488 19.1476H55.0138C54.7494 19.1476 54.5352 18.9333 54.5352 18.669V7.73059C54.5352 7.46625 54.7494 7.25195 55.0138 7.25195H60.9488C61.2132 7.25195 61.4275 7.46624 61.4275 7.73059V8.71338C61.4275 8.97772 61.2132 9.19202 60.9488 9.19202H57.3963Z" fill="url(#paint14_linear_767_1768)"/>
<path d="M52.8414 10.9445C52.8414 11.5798 52.6882 12.1754 52.3819 12.7314C52.0869 13.2873 51.6161 13.7354 50.9694 14.0758C50.3341 14.4162 49.5286 14.5863 48.5528 14.5863H47.0404C46.776 14.5863 46.5617 14.8006 46.5617 15.065V18.6685C46.5617 18.9329 46.3474 19.1472 46.0831 19.1472H44.6578C44.3935 19.1472 44.1792 18.9329 44.1792 18.6685V7.74719C44.1792 7.48285 44.3935 7.26855 44.6578 7.26855H48.5528C49.4718 7.26855 50.2547 7.42739 50.9013 7.74506C51.548 8.06273 52.0302 8.49953 52.3479 9.05545C52.6769 9.61138 52.8414 10.241 52.8414 10.9445ZM48.4507 12.6633C49.1088 12.6633 49.5966 12.5158 49.9143 12.2208C50.232 11.9145 50.3908 11.489 50.3908 10.9445C50.3908 9.78723 49.7441 9.20862 48.4507 9.20862H47.0404C46.776 9.20862 46.5617 9.42291 46.5617 9.68725V12.1847C46.5617 12.449 46.776 12.6633 47.0404 12.6633H48.4507Z" fill="url(#paint15_linear_767_1768)"/>
<path d="M37.9116 19.2666C37.0834 19.2666 36.3346 19.1247 35.6652 18.8411C35.0072 18.5575 34.4853 18.149 34.0995 17.6158C33.8023 17.2049 33.6162 16.7367 33.5413 16.2113C33.5035 15.9467 33.7228 15.7268 33.9901 15.7268H35.6102C35.8616 15.7268 36.0621 15.9245 36.1318 16.166C36.2143 16.4523 36.3594 16.6917 36.5672 16.884C36.8848 17.1677 37.316 17.3095 37.8605 17.3095C38.4165 17.3095 38.8533 17.179 39.1709 16.9181C39.4886 16.6458 39.6474 16.2941 39.6474 15.8629C39.6474 15.5112 39.5397 15.2219 39.3241 14.995C39.1085 14.7681 38.8362 14.5923 38.5072 14.4675C38.1896 14.3313 37.7471 14.1838 37.1798 14.025C36.4083 13.7981 35.7787 13.5769 35.2908 13.3613C34.8143 13.1344 34.4002 12.7997 34.0485 12.3572C33.7081 11.9034 33.5379 11.3021 33.5379 10.5533C33.5379 9.84989 33.7138 9.23724 34.0655 8.71535C34.4172 8.19346 34.9107 7.79637 35.5461 7.52408C36.1814 7.24045 36.9075 7.09863 37.7244 7.09863C38.9497 7.09863 39.9424 7.39929 40.7026 8.00059C41.3461 8.49272 41.7489 9.15064 41.9109 9.97434C41.9646 10.2475 41.7417 10.4852 41.4633 10.4852H39.8109C39.5569 10.4852 39.3578 10.2803 39.2631 10.0446C39.1766 9.82903 39.0324 9.64122 38.8306 9.48117C38.5129 9.20888 38.0874 9.07273 37.5542 9.07273C37.089 9.07273 36.7147 9.19186 36.431 9.43011C36.1587 9.66836 36.0226 10.0144 36.0226 10.4682C36.0226 10.7859 36.1247 11.0525 36.3289 11.2681C36.5445 11.4723 36.8054 11.6425 37.1117 11.7786C37.4294 11.9034 37.8719 12.0509 38.4392 12.2211C39.2106 12.448 39.8403 12.6749 40.3282 12.9018C40.816 13.1287 41.2358 13.4691 41.5875 13.9229C41.9392 14.3767 42.1151 14.9723 42.1151 15.7098C42.1151 16.3451 41.9505 16.9351 41.6215 17.4797C41.2925 18.0242 40.8103 18.461 40.175 18.7901C39.5397 19.1077 38.7852 19.2666 37.9116 19.2666Z" fill="url(#paint16_linear_767_1768)"/>
<defs>
<linearGradient id="paint0_linear_767_1768" x1="4.5602" y1="7.09961" x2="4.5602" y2="13.0829" gradientUnits="userSpaceOnUse">
<stop stop-color="#3892FF"/>
<stop offset="1" stop-color="#9967FC"/>
</linearGradient>
<linearGradient id="paint1_linear_767_1768" x1="9.55992" y1="4.0166" x2="9.55992" y2="9.42432" gradientUnits="userSpaceOnUse">
<stop stop-color="#3892FF"/>
<stop offset="1" stop-color="#9967FC"/>
</linearGradient>
<linearGradient id="paint2_linear_767_1768" x1="2.3967" y1="13.3867" x2="2.3967" y2="18.0022" gradientUnits="userSpaceOnUse">
<stop stop-color="#3892FF"/>
<stop offset="1" stop-color="#9967FC"/>
</linearGradient>
<linearGradient id="paint3_linear_767_1768" x1="16.4112" y1="3.96094" x2="16.4112" y2="9.26934" gradientUnits="userSpaceOnUse">
<stop stop-color="#3892FF"/>
<stop offset="1" stop-color="#9967FC"/>
</linearGradient>
<linearGradient id="paint4_linear_767_1768" x1="21.5482" y1="6.77832" x2="21.5482" y2="12.78" gradientUnits="userSpaceOnUse">
<stop stop-color="#3892FF"/>
<stop offset="1" stop-color="#9967FC"/>
</linearGradient>
<linearGradient id="paint5_linear_767_1768" x1="23.9179" y1="12.9131" x2="23.9179" y2="18.0032" gradientUnits="userSpaceOnUse">
<stop stop-color="#3892FF"/>
<stop offset="1" stop-color="#9967FC"/>
</linearGradient>
<linearGradient id="paint6_linear_767_1768" x1="11.7415" y1="13.2949" x2="11.7415" y2="22.4044" gradientUnits="userSpaceOnUse">
<stop stop-color="#3892FF"/>
<stop offset="1" stop-color="#9967FC"/>
</linearGradient>
<linearGradient id="paint7_linear_767_1768" x1="141.141" y1="7.26855" x2="141.141" y2="19.1472" gradientUnits="userSpaceOnUse">
<stop stop-color="#3892FF"/>
<stop offset="1" stop-color="#9967FC"/>
</linearGradient>
<linearGradient id="paint8_linear_767_1768" x1="128.446" y1="7.11523" x2="128.446" y2="19.2491" gradientUnits="userSpaceOnUse">
<stop stop-color="#3892FF"/>
<stop offset="1" stop-color="#9967FC"/>
</linearGradient>
<linearGradient id="paint9_linear_767_1768" x1="117.609" y1="7.25195" x2="117.609" y2="19.1476" gradientUnits="userSpaceOnUse">
<stop stop-color="#3892FF"/>
<stop offset="1" stop-color="#9967FC"/>
</linearGradient>
<linearGradient id="paint10_linear_767_1768" x1="106.894" y1="7.26855" x2="106.894" y2="19.1472" gradientUnits="userSpaceOnUse">
<stop stop-color="#3892FF"/>
<stop offset="1" stop-color="#9967FC"/>
</linearGradient>
<linearGradient id="paint11_linear_767_1768" x1="94.1279" y1="7.11523" x2="94.1279" y2="19.2491" gradientUnits="userSpaceOnUse">
<stop stop-color="#3892FF"/>
<stop offset="1" stop-color="#9967FC"/>
</linearGradient>
<linearGradient id="paint12_linear_767_1768" x1="77.8569" y1="7.26855" x2="77.8569" y2="19.1472" gradientUnits="userSpaceOnUse">
<stop stop-color="#3892FF"/>
<stop offset="1" stop-color="#9967FC"/>
</linearGradient>
<linearGradient id="paint13_linear_767_1768" x1="67.0375" y1="7.25195" x2="67.0375" y2="19.1476" gradientUnits="userSpaceOnUse">
<stop stop-color="#3892FF"/>
<stop offset="1" stop-color="#9967FC"/>
</linearGradient>
<linearGradient id="paint14_linear_767_1768" x1="57.9813" y1="7.25195" x2="57.9813" y2="19.1476" gradientUnits="userSpaceOnUse">
<stop stop-color="#3892FF"/>
<stop offset="1" stop-color="#9967FC"/>
</linearGradient>
<linearGradient id="paint15_linear_767_1768" x1="48.5103" y1="7.26855" x2="48.5103" y2="19.1472" gradientUnits="userSpaceOnUse">
<stop stop-color="#3892FF"/>
<stop offset="1" stop-color="#9967FC"/>
</linearGradient>
<linearGradient id="paint16_linear_767_1768" x1="37.8095" y1="7.09863" x2="37.8095" y2="19.2666" gradientUnits="userSpaceOnUse">
<stop stop-color="#3892FF"/>
<stop offset="1" stop-color="#9967FC"/>
</linearGradient>
<clipPath id="clip0_767_1768">
<rect width="26.3641" height="26.3641" fill="white"/>
</clipPath>
</defs>
</svg>
