<svg width="98" height="20" viewBox="0 0 98 20" fill="none" xmlns="http://www.w3.org/2000/svg">
<path d="M11.4332 1.42778C11.4332 0.639237 12.0724 0 12.861 0C13.6495 0 14.2887 0.639238 14.2887 1.42778V5.1211C14.2887 5.44695 14.5529 5.71111 14.8787 5.71111H18.5721C19.3606 5.71111 19.9998 6.35034 19.9998 7.13888C19.9998 7.92742 19.3606 8.56666 18.5721 8.56666H14.092C12.6236 8.56666 11.4332 7.37627 11.4332 5.90786V1.42778Z" fill="#25C3AB"/>
<path d="M11.4332 18.5722C11.4332 19.3608 12.0724 20 12.861 20C13.6495 20 14.2887 19.3608 14.2887 18.5722V14.8789C14.2887 14.553 14.5529 14.2889 14.8787 14.2889H18.5721C19.3606 14.2889 19.9998 13.6497 19.9998 12.8611C19.9998 12.0726 19.3606 11.4333 18.5721 11.4333H14.092C12.6236 11.4333 11.4332 12.6237 11.4332 14.0921V18.5722Z" fill="#F3BE00"/>
<path d="M8.56666 1.42778C8.56666 0.639237 7.92742 0 7.13888 0C6.35034 0 5.7111 0.639237 5.7111 1.42778V5.1211C5.7111 5.44695 5.44695 5.71111 5.1211 5.71111H1.42777C0.639235 5.71111 -2.12771e-06 6.35034 -2.12771e-06 7.13888C-2.12771e-06 7.92742 0.639235 8.56666 1.42777 8.56666H5.90786C7.37627 8.56666 8.56666 7.37627 8.56666 5.90786V1.42778Z" fill="#9672F8"/>
<path d="M8.56666 18.5722C8.56666 19.3608 7.92742 20 7.13888 20C6.35034 20 5.7111 19.3608 5.7111 18.5722V14.8789C5.7111 14.553 5.44695 14.2889 5.1211 14.2889H1.42777C0.639235 14.2889 -2.09252e-06 13.6497 -2.09252e-06 12.8611C-2.09252e-06 12.0726 0.639235 11.4333 1.42777 11.4333H5.90786C7.37627 11.4333 8.56666 12.6237 8.56666 14.0921V18.5722Z" fill="#F56FA1"/>
<path d="M9.99986 7.59117C9.99986 8.92154 11.0783 10 12.4087 10C11.0783 10 9.99986 11.0785 9.99986 12.4089C9.99986 11.0785 8.92138 10 7.59101 10C8.92138 10 9.99986 8.92154 9.99986 7.59117Z" fill="#002DDE" stroke="#002DDE" stroke-width="0.651041" stroke-linecap="round" stroke-linejoin="round"/>
<path d="M40.7728 5.90137C42.1862 5.90137 43.3225 6.338 44.1816 7.21124C45.0546 8.07063 45.4911 9.27654 45.4911 10.829V17.5863H42.5812V11.224C42.5812 10.3231 42.3525 9.63693 41.8953 9.16565C41.438 8.68052 40.8144 8.43795 40.0246 8.43795C39.2347 8.43795 38.6042 8.68052 38.1331 9.16565C37.6758 9.63693 37.4472 10.3231 37.4472 11.224V17.5863H34.5372V11.224C34.5372 10.3231 34.3086 9.63693 33.8513 9.16565C33.394 8.68052 32.7705 8.43795 31.9806 8.43795C31.1769 8.43795 30.5395 8.68052 30.0684 9.16565C29.6111 9.63693 29.3825 10.3231 29.3825 11.224V17.5863H26.4725V6.06771H29.3825V7.46074C29.7566 6.97561 30.2347 6.59443 30.8167 6.3172C31.4125 6.03998 32.0638 5.90137 32.7705 5.90137C33.6712 5.90137 34.4749 6.09543 35.1816 6.48354C35.8883 6.85779 36.4356 7.39837 36.8236 8.10528C37.1978 7.43995 37.7382 6.9063 38.4449 6.50433C39.1654 6.10236 39.9414 5.90137 40.7728 5.90137Z" fill="#002DDE"/>
<path d="M51.9107 17.7734C50.8022 17.7734 49.8045 17.5308 48.9176 17.0457C48.0308 16.5467 47.331 15.8467 46.8183 14.9457C46.3194 14.0447 46.07 13.0052 46.07 11.827C46.07 10.6488 46.3264 9.60921 46.8391 8.70824C47.3656 7.80727 48.0793 7.11422 48.98 6.62908C49.8807 6.13008 50.8853 5.88058 51.9938 5.88058C53.1024 5.88058 54.107 6.13008 55.0077 6.62908C55.9084 7.11422 56.6151 7.80727 57.1278 8.70824C57.6544 9.60921 57.9177 10.6488 57.9177 11.827C57.9177 13.0052 57.6475 14.0447 57.107 14.9457C56.5805 15.8467 55.8599 16.5467 54.9454 17.0457C54.0447 17.5308 53.0331 17.7734 51.9107 17.7734ZM51.9107 15.2368C52.4373 15.2368 52.9292 15.1121 53.3865 14.8626C53.8576 14.5992 54.2317 14.2111 54.5089 13.6982C54.786 13.1854 54.9246 12.5616 54.9246 11.827C54.9246 10.732 54.6336 9.89336 54.0516 9.31119C53.4835 8.71517 52.7837 8.41716 51.9523 8.41716C51.1209 8.41716 50.4211 8.71517 49.853 9.31119C49.2987 9.89336 49.0215 10.732 49.0215 11.827C49.0215 12.922 49.2918 13.7675 49.8322 14.3636C50.3864 14.9457 51.0793 15.2368 51.9107 15.2368Z" fill="#002DDE"/>
<path d="M61.2578 15.1952H66.3918V17.5863H57.9529V15.2368L62.983 8.45874H57.9737V6.06771H66.3294V8.41716L61.2578 15.1952Z" fill="#002DDE"/>
<path d="M66.4416 11.7854C66.4416 10.6211 66.6703 9.58842 67.1275 8.68745C67.5987 7.78648 68.2292 7.09342 69.019 6.60829C69.8227 6.12315 70.7165 5.88058 71.7003 5.88058C72.5594 5.88058 73.3077 6.05385 73.9451 6.40037C74.5964 6.7469 75.116 7.18352 75.504 7.71024V6.06771H78.4348V17.5863H75.504V15.9021C75.1299 16.4427 74.6103 16.8932 73.9451 17.2536C73.2939 17.6001 72.5387 17.7734 71.6795 17.7734C70.7095 17.7734 69.8227 17.5239 69.019 17.0249C68.2292 16.5259 67.5987 15.8259 67.1275 14.9249C66.6703 14.0101 66.4416 12.9636 66.4416 11.7854ZM75.504 11.827C75.504 11.1201 75.3655 10.5171 75.0883 10.0181C74.8112 9.50525 74.4371 9.11714 73.9659 8.85378C73.4948 8.57656 72.989 8.43795 72.4486 8.43795C71.9082 8.43795 71.4093 8.56963 70.952 8.83299C70.4948 9.09635 70.1206 9.48446 69.8296 9.99732C69.5525 10.4963 69.4139 11.0923 69.4139 11.7854C69.4139 12.4784 69.5525 13.0883 69.8296 13.6151C70.1206 14.1279 70.4948 14.523 70.952 14.8002C71.4232 15.0774 71.922 15.216 72.4486 15.216C72.989 15.216 73.4948 15.0843 73.9659 14.821C74.4371 14.5437 74.8112 14.1556 75.0883 13.6566C75.3655 13.1438 75.504 12.5339 75.504 11.827Z" fill="#002DDE"/>
<path d="M82.7318 7.85578C83.106 7.2459 83.591 6.76769 84.1868 6.42116C84.7965 6.07464 85.4893 5.90137 86.2653 5.90137V8.95774H85.4963C84.5817 8.95774 83.8889 9.17258 83.4177 9.60228C82.9605 10.032 82.7318 10.7805 82.7318 11.8478V17.5863H79.8219V6.06771H82.7318V7.85578Z" fill="#002DDE"/>
<path d="M93.588 17.5863L89.6803 12.6794V17.5863H86.7704V2.20047H89.6803V10.9537L93.5464 6.06771H97.3293L92.2577 11.8478L97.3709 17.5863H93.588Z" fill="#002DDE"/>
</svg>
