<svg width="1920" height="724" viewBox="0 0 1920 724" fill="none" xmlns="http://www.w3.org/2000/svg">
<g clip-path="url(#clip0_633_909)">
<path d="M1668.85 206.446C1680.82 206.446 1692.3 211.2 1700.76 219.663C1709.22 228.126 1713.98 239.603 1713.98 251.571C1713.98 263.539 1709.22 275.017 1700.76 283.48C1692.3 291.942 1680.82 296.697 1668.85 296.697C1656.88 296.697 1645.41 291.942 1636.94 283.48C1628.48 275.017 1623.73 263.539 1623.73 251.571C1623.73 239.603 1628.48 228.126 1636.94 219.663C1645.41 211.2 1656.88 206.446 1668.85 206.446ZM1668.85 303.143C1682.53 303.143 1695.65 297.71 1705.32 288.038C1714.99 278.367 1720.42 265.249 1720.42 251.571C1720.42 237.894 1714.99 224.776 1705.32 215.105C1695.65 205.433 1682.53 200 1668.85 200C1655.18 200 1642.06 205.433 1632.39 215.105C1622.71 224.776 1617.28 237.894 1617.28 251.571C1617.28 265.249 1622.71 278.367 1632.39 288.038C1642.06 297.71 1655.18 303.143 1668.85 303.143ZM1649.51 235.455V254.795V274.134C1649.51 275.907 1650.96 277.357 1652.74 277.357C1654.51 277.357 1655.96 275.907 1655.96 274.134V258.018H1670.34L1682.29 275.927C1683.28 277.418 1685.27 277.8 1686.76 276.813C1688.25 275.826 1688.64 273.832 1687.65 272.341L1677.48 257.091C1683.72 254.875 1688.19 248.912 1688.19 241.902C1688.19 232.998 1680.98 225.786 1672.08 225.786H1659.18C1653.84 225.786 1649.51 230.117 1649.51 235.455ZM1655.96 251.571V235.455C1655.96 233.683 1657.41 232.232 1659.18 232.232H1672.08C1677.41 232.232 1681.75 236.563 1681.75 241.902C1681.75 247.24 1677.41 251.571 1672.08 251.571H1655.96Z" fill="#002DDE"/>
</g>
<path d="M365.535 254.397C365.535 242.911 374.846 233.6 386.332 233.6V233.6C397.818 233.6 407.129 242.911 407.129 254.397V308.193C407.129 312.939 410.976 316.787 415.723 316.787H469.519C481.004 316.787 490.315 326.098 490.315 337.583V337.583C490.315 349.069 481.004 358.38 469.519 358.38H404.263C382.874 358.38 365.535 341.041 365.535 319.652V254.397Z" fill="#25C3AB"/>
<path d="M365.535 504.118C365.535 515.604 374.846 524.915 386.332 524.915V524.915C397.818 524.915 407.129 515.604 407.129 504.118V450.322C407.129 445.576 410.976 441.728 415.723 441.728H469.519C481.004 441.728 490.315 432.418 490.315 420.932V420.932C490.315 409.446 481.004 400.135 469.519 400.135H404.263C382.874 400.135 365.535 417.474 365.535 438.863V504.118Z" fill="#F3BE00"/>
<path d="M323.78 254.397C323.78 242.911 314.469 233.6 302.983 233.6V233.6C291.497 233.6 282.187 242.911 282.187 254.397V308.193C282.187 312.939 278.339 316.787 273.593 316.787H219.797C208.311 316.787 199 326.098 199 337.583V337.583C199 349.069 208.311 358.38 219.797 358.38H285.052C306.441 358.38 323.78 341.041 323.78 319.652V254.397Z" fill="#9672F8"/>
<path d="M323.78 504.118C323.78 515.604 314.469 524.915 302.983 524.915V524.915C291.497 524.915 282.187 515.604 282.187 504.118V450.322C282.187 445.576 278.339 441.728 273.593 441.728H219.797C208.311 441.728 199 432.418 199 420.932V420.932C199 409.446 208.311 400.135 219.797 400.135H285.052C306.441 400.135 323.78 417.474 323.78 438.863V504.118Z" fill="#F56FA1"/>
<path d="M344.657 344.171C344.657 363.549 360.365 379.258 379.743 379.258C360.365 379.258 344.657 394.967 344.657 414.345C344.657 394.967 328.948 379.258 309.57 379.258C328.948 379.258 344.657 363.549 344.657 344.171Z" fill="#002DDE" stroke="#002DDE" stroke-width="9.4829" stroke-linecap="round" stroke-linejoin="round"/>
<path d="M792.888 319.557C813.475 319.557 830.026 325.917 842.54 338.637C855.255 351.154 861.613 368.719 861.613 391.332V489.756H819.227V397.086C819.227 383.962 815.897 373.968 809.237 367.104C802.576 360.038 793.493 356.504 781.989 356.504C770.484 356.504 761.3 360.038 754.438 367.104C747.777 373.968 744.447 383.962 744.447 397.086V489.756H702.061V397.086C702.061 383.962 698.731 373.968 692.071 367.104C685.41 360.038 676.327 356.504 664.823 356.504C653.116 356.504 643.832 360.038 636.969 367.104C630.309 373.968 626.978 383.962 626.978 397.086V489.756H584.593V321.98H626.978V342.271C632.428 335.204 639.391 329.652 647.868 325.614C656.547 321.576 666.034 319.557 676.327 319.557C689.447 319.557 701.153 322.384 711.447 328.037C721.741 333.488 729.713 341.362 735.364 351.659C740.814 341.968 748.686 334.195 758.979 328.34C769.475 322.485 780.778 319.557 792.888 319.557Z" fill="#002DDE"/>
<path d="M955.119 492.482C938.972 492.482 924.44 488.949 911.523 481.882C898.605 474.614 888.412 464.418 880.944 451.295C873.678 438.172 870.045 423.029 870.045 405.868C870.045 388.707 873.779 373.565 881.247 360.441C888.917 347.318 899.311 337.223 912.431 330.157C925.55 322.889 940.183 319.254 956.33 319.254C972.477 319.254 987.11 322.889 1000.23 330.157C1013.35 337.223 1023.64 347.318 1031.11 360.441C1038.78 373.565 1042.62 388.707 1042.62 405.868C1042.62 423.029 1038.68 438.172 1030.81 451.295C1023.14 464.418 1012.64 474.614 999.321 481.882C986.202 488.949 971.468 492.482 955.119 492.482ZM955.119 455.535C962.789 455.535 969.954 453.718 976.615 450.084C983.477 446.248 988.927 440.594 992.964 433.124C997 425.654 999.019 416.569 999.019 405.868C999.019 389.918 994.78 377.704 986.303 369.224C978.028 360.542 967.835 356.202 955.725 356.202C943.615 356.202 933.422 360.542 925.147 369.224C917.073 377.704 913.036 389.918 913.036 405.868C913.036 421.818 916.972 434.134 924.844 442.815C932.917 451.295 943.009 455.535 955.119 455.535Z" fill="#002DDE"/>
<path d="M1091.27 454.929H1166.05V489.756H1043.13V455.535L1116.4 356.807H1043.43V321.98H1165.14V356.202L1091.27 454.929Z" fill="#002DDE"/>
<path d="M1166.77 405.262C1166.77 388.303 1170.1 373.262 1176.76 360.139C1183.63 347.015 1192.81 336.92 1204.31 329.854C1216.02 322.788 1229.04 319.254 1243.37 319.254C1255.88 319.254 1266.78 321.778 1276.07 326.826C1285.55 331.873 1293.12 338.233 1298.77 345.905V321.98H1341.46V489.756H1298.77V465.226C1293.32 473.1 1285.76 479.661 1276.07 484.911C1266.58 489.958 1255.58 492.482 1243.07 492.482C1228.94 492.482 1216.02 488.848 1204.31 481.579C1192.81 474.311 1183.63 464.115 1176.76 450.992C1170.1 437.667 1166.77 422.424 1166.77 405.262ZM1298.77 405.868C1298.77 395.571 1296.76 386.789 1292.72 379.521C1288.68 372.05 1283.23 366.397 1276.37 362.561C1269.51 358.523 1262.14 356.504 1254.27 356.504C1246.4 356.504 1239.13 358.422 1232.47 362.258C1225.81 366.095 1220.36 371.748 1216.12 379.218C1212.09 386.486 1210.07 395.168 1210.07 405.262C1210.07 415.357 1212.09 424.241 1216.12 431.913C1220.36 439.383 1225.81 445.137 1232.47 449.175C1239.33 453.213 1246.6 455.232 1254.27 455.232C1262.14 455.232 1269.51 453.314 1276.37 449.478C1283.23 445.44 1288.68 439.787 1292.72 432.519C1296.76 425.048 1298.77 416.165 1298.77 405.868Z" fill="#002DDE"/>
<path d="M1404.05 348.025C1409.5 339.141 1416.57 332.176 1425.24 327.128C1434.13 322.081 1444.22 319.557 1455.52 319.557V364.076H1444.32C1431 364.076 1420.91 367.205 1414.04 373.464C1407.38 379.723 1404.05 390.625 1404.05 406.171V489.756H1361.67V321.98H1404.05V348.025Z" fill="#002DDE"/>
<path d="M1562.18 489.756L1505.26 418.285V489.756H1462.88V265.651H1505.26V393.149L1561.57 321.98H1616.68L1542.8 406.171L1617.28 489.756H1562.18Z" fill="#002DDE"/>
<defs>
<clipPath id="clip0_633_909">
<rect width="103.143" height="103.143" fill="white" transform="translate(1617.28 200)"/>
</clipPath>
</defs>
</svg>
