<svg width="2000" height="1000" viewBox="0 0 2000 1000" fill="none" xmlns="http://www.w3.org/2000/svg">
<path d="M402.336 363.224C402.336 350.562 412.601 340.297 425.263 340.297C437.925 340.297 448.19 350.562 448.19 363.224V422.53C448.19 427.763 452.432 432.005 457.664 432.005H516.971C529.633 432.005 539.897 442.269 539.897 454.932C539.897 467.594 529.633 477.858 516.971 477.858H445.031C421.451 477.858 402.336 458.743 402.336 435.164V363.224Z" fill="#25C3AB"/>
<path d="M402.336 638.525C402.336 651.187 412.601 661.452 425.263 661.452C437.925 661.452 448.19 651.187 448.19 638.525V579.219C448.19 573.986 452.432 569.744 457.664 569.744H516.971C529.633 569.744 539.897 559.48 539.897 546.817C539.897 534.155 529.633 523.891 516.971 523.891H445.031C421.451 523.891 402.336 543.006 402.336 566.585V638.525Z" fill="#F3BE00"/>
<path d="M356.304 363.224C356.304 350.562 346.039 340.297 333.377 340.297C320.715 340.297 310.45 350.562 310.45 363.224V422.53C310.45 427.763 306.208 432.005 300.976 432.005H241.67C229.007 432.005 218.743 442.269 218.743 454.932C218.743 467.594 229.007 477.858 241.67 477.858H313.609C337.189 477.858 356.304 458.743 356.304 435.164V363.224Z" fill="#9672F8"/>
<path d="M356.304 638.525C356.304 651.187 346.039 661.452 333.377 661.452C320.715 661.452 310.45 651.187 310.45 638.525V579.219C310.45 573.986 306.208 569.744 300.976 569.744H241.67C229.007 569.744 218.743 559.48 218.743 546.817C218.743 534.155 229.007 523.891 241.67 523.891H313.609C337.189 523.891 356.304 543.006 356.304 566.585V638.525Z" fill="#F56FA1"/>
<path d="M379.318 462.194C379.318 483.557 396.636 500.875 417.999 500.875C396.636 500.875 379.318 518.193 379.318 539.555C379.318 518.193 362 500.875 340.638 500.875C362 500.875 379.318 483.557 379.318 462.194Z" fill="white" stroke="white" stroke-width="10.4542" stroke-linecap="round" stroke-linejoin="round"/>
<path d="M873.463 435.059C896.159 435.059 914.405 442.07 928.2 456.092C942.218 469.892 949.227 489.256 949.227 514.185V622.691H902.5V520.529C902.5 506.061 898.829 495.043 891.486 487.476C884.143 479.686 874.13 475.791 861.447 475.791C848.764 475.791 838.64 479.686 831.075 487.476C823.732 495.043 820.06 506.061 820.06 520.529V622.691H773.333V520.529C773.333 506.061 769.662 495.043 762.319 487.476C754.976 479.686 744.963 475.791 732.28 475.791C719.374 475.791 709.139 479.686 701.573 487.476C694.231 495.043 690.559 506.061 690.559 520.529V622.691H643.832V437.73H690.559V460.099C696.567 452.309 704.244 446.188 713.589 441.736C723.157 437.285 733.615 435.059 744.963 435.059C759.426 435.059 772.332 438.175 783.68 444.407C795.028 450.417 803.817 459.097 810.047 470.449C816.055 459.765 824.733 451.196 836.081 444.741C847.652 438.286 860.112 435.059 873.463 435.059Z" fill="white"/>
<path d="M1052.31 625.696C1034.51 625.696 1018.49 621.801 1004.25 614.011C990.009 605.998 978.772 594.758 970.539 580.29C962.529 565.823 958.523 549.13 958.523 530.211C958.523 511.292 962.64 494.598 970.873 480.131C979.328 465.663 990.787 454.534 1005.25 446.744C1019.71 438.731 1035.85 434.725 1053.65 434.725C1071.45 434.725 1087.58 438.731 1102.04 446.744C1116.51 454.534 1127.85 465.663 1136.09 480.131C1144.54 494.598 1148.77 511.292 1148.77 530.211C1148.77 549.13 1144.43 565.823 1135.75 580.29C1127.3 594.758 1115.73 605.998 1101.04 614.011C1086.58 621.801 1070.33 625.696 1052.31 625.696ZM1052.31 584.965C1060.77 584.965 1068.67 582.961 1076.01 578.955C1083.57 574.726 1089.58 568.494 1094.03 560.259C1098.48 552.023 1100.71 542.007 1100.71 530.211C1100.71 512.627 1096.03 499.161 1086.69 489.813C1077.57 480.242 1066.33 475.457 1052.98 475.457C1039.63 475.457 1028.39 480.242 1019.27 489.813C1010.37 499.161 1005.92 512.627 1005.92 530.211C1005.92 547.794 1010.26 561.371 1018.93 570.942C1027.84 580.29 1038.96 584.965 1052.31 584.965Z" fill="white"/>
<path d="M1202.4 584.297H1284.84V622.691H1149.34V584.965L1230.11 476.124H1149.67V437.73H1283.84V475.457L1202.4 584.297Z" fill="white"/>
<path d="M1285.64 529.543C1285.64 510.846 1289.32 494.264 1296.66 479.797C1304.22 465.329 1314.35 454.201 1327.03 446.41C1339.94 438.62 1354.29 434.725 1370.09 434.725C1383.88 434.725 1395.9 437.507 1406.13 443.072C1416.59 448.636 1424.94 455.647 1431.17 464.105V437.73H1478.23V622.691H1431.17V595.648C1425.16 604.329 1416.81 611.563 1406.13 617.35C1395.68 622.914 1383.55 625.696 1369.75 625.696C1354.18 625.696 1339.94 621.69 1327.03 613.677C1314.35 605.664 1304.22 594.424 1296.66 579.957C1289.32 565.267 1285.64 548.462 1285.64 529.543ZM1431.17 530.211C1431.17 518.859 1428.94 509.177 1424.49 501.164C1420.04 492.929 1414.03 486.697 1406.47 482.468C1398.9 478.016 1390.78 475.791 1382.1 475.791C1373.43 475.791 1365.41 477.905 1358.07 482.134C1350.73 486.363 1344.72 492.595 1340.05 500.83C1335.6 508.843 1333.37 518.414 1333.37 529.543C1333.37 540.672 1335.6 550.465 1340.05 558.923C1344.72 567.158 1350.73 573.502 1358.07 577.953C1365.64 582.405 1373.65 584.631 1382.1 584.631C1390.78 584.631 1398.9 582.516 1406.47 578.287C1414.03 573.836 1420.04 567.604 1424.49 559.591C1428.94 551.355 1431.17 541.562 1431.17 530.211Z" fill="white"/>
<path d="M1547.23 466.442C1553.24 456.649 1561.02 448.97 1570.59 443.406C1580.38 437.841 1591.51 435.059 1603.97 435.059V484.137H1591.62C1576.93 484.137 1565.81 487.587 1558.24 494.487C1550.9 501.387 1547.23 513.406 1547.23 530.544V622.691H1500.5V437.73H1547.23V466.442Z" fill="white"/>
<path d="M1721.55 622.691L1658.81 543.899V622.691H1612.08V375.631H1658.81V516.188L1720.89 437.73H1781.63L1700.19 530.544L1782.3 622.691H1721.55Z" fill="white"/>
</svg>
